<mxfile host="app.diagrams.net" modified="2024-05-04T11:29:29.959Z" agent="Mozilla/5.0 (Windows NT 10.0; Win64; x64) AppleWebKit/537.36 (KHTML, like Gecko) Chrome/124.0.0.0 Safari/537.36 Edg/124.0.0.0" etag="Cg1fs7IzSgPCV2puu0vG" version="24.3.1" type="github">
  <diagram id="C5RBs43oDa-KdzZeNtuy" name="Page-1">
    <mxGraphModel dx="996" dy="586" grid="1" gridSize="10" guides="1" tooltips="1" connect="1" arrows="1" fold="1" page="1" pageScale="1" pageWidth="827" pageHeight="1169" math="0" shadow="0">
      <root>
        <mxCell id="WIyWlLk6GJQsqaUBKTNV-0" />
        <mxCell id="WIyWlLk6GJQsqaUBKTNV-1" parent="WIyWlLk6GJQsqaUBKTNV-0" />
        <mxCell id="bWcNiGDQy0L1yjU-FBSW-6" value="" style="edgeStyle=orthogonalEdgeStyle;rounded=0;orthogonalLoop=1;jettySize=auto;html=1;" edge="1" parent="WIyWlLk6GJQsqaUBKTNV-1" source="bWcNiGDQy0L1yjU-FBSW-0" target="bWcNiGDQy0L1yjU-FBSW-5">
          <mxGeometry relative="1" as="geometry" />
        </mxCell>
        <mxCell id="bWcNiGDQy0L1yjU-FBSW-0" value="开始" style="strokeWidth=2;html=1;shape=mxgraph.flowchart.terminator;whiteSpace=wrap;fontSize=14;" vertex="1" parent="WIyWlLk6GJQsqaUBKTNV-1">
          <mxGeometry x="240" y="90" width="100" height="60" as="geometry" />
        </mxCell>
        <mxCell id="bWcNiGDQy0L1yjU-FBSW-1" value="结束" style="strokeWidth=2;html=1;shape=mxgraph.flowchart.terminator;whiteSpace=wrap;fontSize=14;" vertex="1" parent="WIyWlLk6GJQsqaUBKTNV-1">
          <mxGeometry x="240" y="570" width="100" height="60" as="geometry" />
        </mxCell>
        <mxCell id="bWcNiGDQy0L1yjU-FBSW-11" value="否" style="edgeStyle=orthogonalEdgeStyle;rounded=0;orthogonalLoop=1;jettySize=auto;html=1;" edge="1" parent="WIyWlLk6GJQsqaUBKTNV-1" source="bWcNiGDQy0L1yjU-FBSW-2" target="bWcNiGDQy0L1yjU-FBSW-10">
          <mxGeometry relative="1" as="geometry" />
        </mxCell>
        <mxCell id="bWcNiGDQy0L1yjU-FBSW-13" value="" style="edgeStyle=orthogonalEdgeStyle;rounded=0;orthogonalLoop=1;jettySize=auto;html=1;" edge="1" parent="WIyWlLk6GJQsqaUBKTNV-1" source="bWcNiGDQy0L1yjU-FBSW-2" target="bWcNiGDQy0L1yjU-FBSW-12">
          <mxGeometry relative="1" as="geometry" />
        </mxCell>
        <mxCell id="bWcNiGDQy0L1yjU-FBSW-14" value="是" style="edgeLabel;html=1;align=center;verticalAlign=middle;resizable=0;points=[];" vertex="1" connectable="0" parent="bWcNiGDQy0L1yjU-FBSW-13">
          <mxGeometry x="-0.52" y="-1" relative="1" as="geometry">
            <mxPoint as="offset" />
          </mxGeometry>
        </mxCell>
        <mxCell id="bWcNiGDQy0L1yjU-FBSW-2" value="是否已登录" style="shape=rhombus;perimeter=rhombusPerimeter;whiteSpace=wrap;html=1;align=center;fontSize=14;" vertex="1" parent="WIyWlLk6GJQsqaUBKTNV-1">
          <mxGeometry x="240" y="365" width="100" height="70" as="geometry" />
        </mxCell>
        <mxCell id="bWcNiGDQy0L1yjU-FBSW-8" value="" style="edgeStyle=orthogonalEdgeStyle;rounded=0;orthogonalLoop=1;jettySize=auto;html=1;" edge="1" parent="WIyWlLk6GJQsqaUBKTNV-1" source="bWcNiGDQy0L1yjU-FBSW-5" target="bWcNiGDQy0L1yjU-FBSW-7">
          <mxGeometry relative="1" as="geometry" />
        </mxCell>
        <mxCell id="bWcNiGDQy0L1yjU-FBSW-5" value="进入各个模块详情页面" style="rounded=1;whiteSpace=wrap;html=1;absoluteArcSize=1;arcSize=14;strokeWidth=2;fontSize=14;" vertex="1" parent="WIyWlLk6GJQsqaUBKTNV-1">
          <mxGeometry x="243.75" y="200" width="92.5" height="50" as="geometry" />
        </mxCell>
        <mxCell id="bWcNiGDQy0L1yjU-FBSW-9" value="" style="edgeStyle=orthogonalEdgeStyle;rounded=0;orthogonalLoop=1;jettySize=auto;html=1;" edge="1" parent="WIyWlLk6GJQsqaUBKTNV-1" source="bWcNiGDQy0L1yjU-FBSW-7" target="bWcNiGDQy0L1yjU-FBSW-2">
          <mxGeometry relative="1" as="geometry" />
        </mxCell>
        <mxCell id="bWcNiGDQy0L1yjU-FBSW-7" value="点击下载按钮" style="rounded=1;whiteSpace=wrap;html=1;absoluteArcSize=1;arcSize=14;strokeWidth=2;fontSize=14;" vertex="1" parent="WIyWlLk6GJQsqaUBKTNV-1">
          <mxGeometry x="235" y="280" width="110" height="50" as="geometry" />
        </mxCell>
        <mxCell id="bWcNiGDQy0L1yjU-FBSW-10" value="进入登录页面" style="rounded=1;whiteSpace=wrap;html=1;absoluteArcSize=1;arcSize=14;strokeWidth=2;fontSize=14;" vertex="1" parent="WIyWlLk6GJQsqaUBKTNV-1">
          <mxGeometry x="395" y="375" width="110" height="50" as="geometry" />
        </mxCell>
        <mxCell id="bWcNiGDQy0L1yjU-FBSW-15" value="" style="edgeStyle=orthogonalEdgeStyle;rounded=0;orthogonalLoop=1;jettySize=auto;html=1;" edge="1" parent="WIyWlLk6GJQsqaUBKTNV-1" source="bWcNiGDQy0L1yjU-FBSW-12" target="bWcNiGDQy0L1yjU-FBSW-1">
          <mxGeometry relative="1" as="geometry" />
        </mxCell>
        <mxCell id="bWcNiGDQy0L1yjU-FBSW-12" value="进入登录页面" style="rounded=1;whiteSpace=wrap;html=1;absoluteArcSize=1;arcSize=14;strokeWidth=2;fontSize=14;" vertex="1" parent="WIyWlLk6GJQsqaUBKTNV-1">
          <mxGeometry x="235" y="480" width="110" height="50" as="geometry" />
        </mxCell>
      </root>
    </mxGraphModel>
  </diagram>
</mxfile>
